<svg width="200px" height="26px" viewBox="0 0 213 17" xmlns="http://www.w3.org/2000/svg"><title>Fame and Partners Logo</title><path d="M55.051 15.874h9.985v-2.796h-7.162V9.426h5.76V6.65h-5.76V3h7.162V.204h-9.985v15.67zM197.237 4.467c0-2.314-1.247-4.268-5.333-4.268h-3.238V15.87h1.79V9.173c.845.02 1.629-.04 2.356-.18.946 1.119 3.152 4.074 5.295 6.877h2.305c-2.63-3.334-5.561-7.119-5.855-7.456 1.714-.798 2.68-2.212 2.68-3.947zm-6.78 4.26V.616h.966c2.15.081 3.961 1.697 3.961 4.21 0 2.35-1.429 3.938-4.928 3.9zM0 15.873h2.823V9.426h5.76V6.65h-5.76V3h7.16V.204H0v15.67zM77.78 2.837L76.418.09l-1.363 2.746-.38.76-.376.755h.756l.375-.756H77.4l.38.756h.75l-.375-.756-.374-.76zm-1.977 0l.614-1.23.608 1.23h-1.222zM33.603.203v15.67h2.824v-8.91l4.223 4.187h.024l4.223-4.188v8.912h2.824V.204L40.65 7.208 33.602.203zm172.33 3.148c0-.357.066-.737.153-1.083.19-.75.59-1.28 1.276-1.658 1.855-1.021 3.632 1.113 4.625 2.381V1.038C210.984.3 209.954 0 208.767 0c-1.648 0-4.183 1.178-4.183 3.928 0 4.665 6.802 4.766 6.802 8.494 0 .968-.247 2.287-1.139 2.857-.599.383-1.456.372-2.136.267-.784-.124-1.388-.639-1.945-1.165a10.162 10.162 0 0 1-1.46-1.699v2.014c.683.757 2.17 1.394 3.418 1.394 2.514 0 4.83-1.573 4.83-4.147 0-5.123-7.021-4.843-7.021-8.592zm-180.15 6.95L20.77.203l-5.015 10.098-1.4 2.798-1.379 2.775h2.779l1.377-2.775h7.253l1.4 2.775h2.758l-1.38-2.775-1.378-2.798zm-7.273 0l2.259-4.524 2.237 4.524H18.51zM111.36.199l1.115 2.748-5.211 12.923h.925l4.731-11.823 4.796 11.823h1.956L113.31.2h-1.948zm56.885 12.644L156.757.199h-1.748V15.87h.86V1.916l12.937 13.954h.304V.2h-.865v12.644zm-30.64-11.825h5.475V15.87h1.79V1.018h5.45v-.82h-12.714v.82zm-56.3 7.264l-2.443-2.428v4.26h.76V7.69l1.682 1.663.769.76v-4.26h-.769v2.428zm51.956-3.815c0-2.314-1.246-4.268-5.33-4.268h-3.24V15.87h1.792V9.173c.846.02 1.629-.04 2.352-.18.95 1.119 3.154 4.074 5.3 6.877h2.305c-2.63-3.334-5.56-7.119-5.855-7.456 1.714-.798 2.676-2.212 2.676-3.947zm-6.778 4.26V.616h.965c2.152.081 3.962 1.697 3.962 4.21 0 2.35-1.427 3.938-4.927 3.9zM98.753.2h-3.24v15.67h1.792V9.174c1.277.03 2.828-.157 4.114-.738 1.012-.46 1.86-1.165 2.278-2.209.209-.521.386-1.194.386-1.76 0-2.314-1.245-4.267-5.33-4.267zm-1.448 8.526V.618h.966c2.151.08 3.964 1.696 3.964 4.209 0 2.352-1.43 3.938-4.93 3.9zM85.622 12.24a2.133 2.133 0 0 0-1.52-.624h-1.314v4.259H84.1a2.123 2.123 0 0 0 1.52-.624 2.14 2.14 0 0 0 .46-.679c.114-.258.17-.535.17-.827 0-.291-.056-.568-.17-.827a2.148 2.148 0 0 0-.46-.678zm-.24 2.041c-.072.165-.172.31-.298.436-.127.123-.274.22-.442.29-.167.073-.349.11-.54.11h-.547v-2.74h.546c.192 0 .374.034.541.107a1.375 1.375 0 0 1 .74.733c.07.164.108.34.108.528 0 .193-.037.371-.108.536zm89.86 1.602h7.287v-.799h-5.494v-7.95h4.547l-.978-.783h-3.569V1.027h5.494V.209h-7.287v15.673z" fill-rule="nonzero" fill="#FFF"></path></svg>